<svg xmlns="http://www.w3.org/2000/svg" width="10" height="8" viewBox="0 0 10 8">
  <path fill="#fff" d="M8.905,2.264 C8.909,2.346 8.91,2.428 8.91,2.508 C8.91,5.008 7.009,7.889 3.531,7.889 C2.463,7.889 1.469,7.577 0.633,7.039 C0.78,7.057 0.931,7.064 1.084,7.064 C1.97,7.064 2.785,6.763 3.432,6.255 C2.605,6.239 1.907,5.693 1.666,4.943 C1.781,4.964 1.899,4.976 2.021,4.976 C2.193,4.976 2.361,4.953 2.519,4.91 C1.654,4.736 1.002,3.972 1.002,3.056 L1.002,3.033 C1.257,3.174 1.549,3.26 1.859,3.27 C1.351,2.93 1.018,2.352 1.018,1.695 C1.018,1.349 1.111,1.023 1.274,0.744 C2.207,1.888 3.599,2.64 5.171,2.721 C5.138,2.582 5.122,2.438 5.122,2.289 C5.122,1.246 5.968,0.398 7.013,0.398 C7.556,0.398 8.048,0.628 8.393,0.996 C8.824,0.91 9.228,0.754 9.593,0.537 C9.452,0.978 9.153,1.349 8.762,1.584 C9.145,1.537 9.509,1.436 9.848,1.285 C9.595,1.664 9.274,1.998 8.905,2.264 Z"/>
</svg>
