<svg xmlns="http://www.w3.org/2000/svg" width="18" height="18" viewBox="0 0 18 18">
  <path fill="#ffffff" d="M9,0.6 C13.639,0.6 17.4,4.361 17.4,9 C17.4,13.639 13.639,17.4 9,17.4 C4.361,17.4 0.6,13.639 0.6,9 C0.6,4.361 4.361,0.6 9,0.6 Z M7.59979417,14.1459377 C7.61573901,14.1459377 7.63023432,14.1459377 7.64617917,14.1444881 C7.97884653,14.1292681 8.28252327,13.9524253 8.45791652,13.669042 L13.5196788,5.54442072 C13.8153831,5.07042409 13.6697052,4.44712576 13.1964334,4.15287097 C12.7224367,3.85789141 12.0991384,4.00284451 11.8041588,4.47539161 L7.52006997,11.3548657 L5.81614628,9.10519362 C5.47913033,8.6601876 4.84641005,8.57104144 4.40067926,8.90950693 C3.95567325,9.24652289 3.86797662,9.87924317 4.20499258,10.3235244 L6.79457971,13.7451423 C6.9859178,13.9988103 7.28452118,14.1459377 7.59979417,14.1459377 Z"/>
</svg>
