<svg xmlns="http://www.w3.org/2000/svg" width="39" height="38" viewBox="0 0 39 38">
  <path fill="#666" fill-rule="evenodd" d="M31.5,26.5 L23.375,17.75 L29.15625,17.75 C28.895832,15.2499875 27.7890723,13.166675 25.8359375,11.5 C23.8828027,9.833325 21.6041797,9 19,9 C16.2395695,9 13.8828223,9.97655273 11.9296875,11.9296875 C9.97655273,13.8828223 9,16.2395695 9,19 C9,21.7604305 9.97655273,24.1171777 11.9296875,26.0703125 C13.8828223,28.0234473 16.2395695,29 19,29 C21.1875109,29 23.1406164,28.3750062 24.859375,27.125 L25.328125,26.734375 L28.6875,30.328125 L28.140625,30.796875 C25.3281109,32.9323023 22.2812664,34 19,34 C15.5103992,34 12.3984512,32.9062609 9.6640625,30.71875 C6.92967383,28.5312391 5.17187891,25.7448086 4.390625,22.359375 C4.390625,22.3072914 4.36458359,22.2291672 4.3125,22.125 L4.3125,21.8125 L4.234375,21.65625 L4.234375,21.578125 C4.234375,21.5260414 4.2213543,21.4739586 4.1953125,21.421875 C4.1692707,21.3697914 4.15625,21.3177086 4.15625,21.265625 C4.05208281,20.6406219 4,20.1458352 4,19.78125 L4,18.21875 C4,17.8541648 4.05208281,17.3593781 4.15625,16.734375 C4.15625,16.6822914 4.1692707,16.6302086 4.1953125,16.578125 C4.2213543,16.5260414 4.234375,16.4739586 4.234375,16.421875 L4.234375,16.34375 L4.3125,16.265625 L4.3125,15.796875 C4.36458359,15.7447914 4.390625,15.6927086 4.390625,15.640625 C5.17187891,12.2551914 6.92967383,9.46876094 9.6640625,7.28125 C12.3984512,5.09373906 15.5103992,4 19,4 C19.8333375,4 20.6406211,4.07812422 21.421875,4.234375 L21.734375,4.234375 C26.3698148,5.0677125 29.8333219,7.5676875 32.125,11.734375 C33.1666719,13.5573008 33.7656242,15.5624891 33.921875,17.75 L39,17.75 L31.5,26.5 Z"/>
</svg>
