<svg xmlns="http://www.w3.org/2000/svg" width="20" height="15" viewBox="0 0 20 15">
  <path fill="#FFF" fill-rule="evenodd" d="M7.93527732,10.4464231 L13.3370695,7.65624125 L7.93527732,4.83257717 L7.93527732,10.4464231 Z M10.0000119,0.82587596 C14.2076062,0.82587596 16.9977881,1.02676906 16.9977881,1.02676906 C17.3884136,1.07141197 18.2477896,1.07141197 19.0067191,1.87498435 C19.0067191,1.87498435 19.6205591,2.47766364 19.7991307,3.86159386 C20.0111846,5.47989937 20.0000238,7.09820487 20.0000238,7.09820487 L20.0000238,8.61606382 C20.0000238,8.61606382 20.0111846,10.2343693 19.7991307,11.8526748 C19.6205591,13.2254443 19.0067191,13.8392843 19.0067191,13.8392843 C18.2477896,14.631696 17.3884136,14.631696 16.9977881,14.6763389 C16.9977881,14.6763389 14.2076062,14.8883927 10.0000119,14.8883927 C4.79911286,14.8437498 3.20312882,14.6874996 3.20312882,14.6874996 C2.75669971,14.6093745 1.75223423,14.631696 0.993304756,13.8392843 C0.993304756,13.8392843 0.379464738,13.2254443 0.200893097,11.8526748 C-0.0111607276,10.2343693 3.33066907e-16,8.61606382 3.33066907e-16,8.61606382 L3.33066907e-16,7.09820487 C3.33066907e-16,7.09820487 -0.0111607276,5.47989937 0.200893097,3.86159386 C0.379464738,2.47766364 0.993304756,1.87498435 0.993304756,1.87498435 C1.75223423,1.07141197 2.61161026,1.07141197 3.00223572,1.02676906 C3.00223572,1.02676906 5.79241762,0.82587596 10.0000119,0.82587596 Z"/>
</svg>
