<svg xmlns="http://www.w3.org/2000/svg" width="17" height="12" viewBox="0 0 17 12">
  <path fill="#000" fill-rule="evenodd" d="M16.2714286,4.8 L0.728571429,4.8 C0.0582857143,4.8 0,5.3364 0,6 C0,6.6636 0.0582857143,7.2 0.728571429,7.2 L16.2714286,7.2 C16.9417143,7.2 17,6.6636 17,6 C17,5.3364 16.9417143,4.8 16.2714286,4.8 L16.2714286,4.8 Z M16.2714286,9.6 L0.728571429,9.6 C0.0582857143,9.6 0,10.1364 0,10.8 C0,11.4636 0.0582857143,12 0.728571429,12 L16.2714286,12 C16.9417143,12 17,11.4636 17,10.8 C17,10.1364 16.9417143,9.6 16.2714286,9.6 L16.2714286,9.6 Z M0.728571429,2.4 L16.2714286,2.4 C16.9417143,2.4 17,1.8636 17,1.2 C17,0.5364 16.9417143,0 16.2714286,0 L0.728571429,0 C0.0582857143,0 0,0.5364 0,1.2 C0,1.8636 0.0582857143,2.4 0.728571429,2.4 L0.728571429,2.4 Z"/>
</svg>
