<?xml version="1.0" encoding="UTF-8"?>
<svg width="37px" height="37px" viewBox="0 0 37 37" version="1.1" xmlns="http://www.w3.org/2000/svg" xmlns:xlink="http://www.w3.org/1999/xlink">
    <title>Union_1</title>
    <g id="Welcome" stroke="none" stroke-width="1" fill="none" fill-rule="evenodd" stroke-opacity="0">
        <g id="Mobile" transform="translate(-20.000000, -33.000000)" fill="#00D581" fill-rule="nonzero" stroke="#000000">
            <g id="intention-logo-full" transform="translate(20.000000, 33.000000)">
                <path d="M16.6586894,37 L16.6586894,27.6143333 L13.01475,36.2636439 L9.62140152,34.8340985 L13.1532197,26.4499545 L6.72026515,32.8829091 L4.11625,30.2788939 L10.3768182,24.0183258 L2.25111364,27.5327652 L0.788772727,24.1531515 L9.60346212,20.3410303 L0,20.3410303 L0,16.6584091 L8.85337121,16.6584091 L0.622833333,13.3973636 L1.97865909,9.97374242 L10.9077121,13.511447 L4.11625,6.71998485 L6.72026515,4.1159697 L12.980553,10.3762576 L9.46639394,2.25055303 L12.8462879,0.788492424 L16.6584091,9.60374242 L16.6584091,0 L20.3418712,0 L20.3418712,9.38426515 L23.9858106,0.736356061 L27.3797197,2.16590152 L23.8479015,10.5486439 L30.2802955,4.11625 L32.8840303,6.72026515 L26.6240227,12.980553 L34.749447,9.46639394 L36.2117879,12.8460076 L27.3973788,16.6581288 L37,16.6581288 L37,20.34075 L28.1471894,20.34075 L36.3777273,23.6017955 L35.0210606,27.0254167 L26.0920076,23.4877121 L32.8834697,30.2791742 L30.2797348,32.8831894 L24.0191667,26.6226212 L27.5336061,34.7486061 L24.1537121,36.2106667 L20.3415909,27.3968182 L20.3415909,37 L16.6586894,37 Z M19.1424545,21.6037955 L20.276,21.1135455 L21.1485833,20.2406818 L21.6035152,19.0914394 L21.6035152,17.8581061 L21.1124242,16.7228788 L20.2656288,15.875803 L19.1264773,15.3959242 L17.8583864,15.3959242 L16.7234394,15.8867348 L15.851697,16.7584773 L15.3964848,17.9077197 L15.3964848,19.1427348 L15.8864545,20.2748788 L16.7346515,21.1233561 L17.873803,21.6032348 L19.1424545,21.6037955 Z M16.6536439,18.5 C16.6539534,17.4804593 17.4804592,16.654079 18.5,16.6539242 C19.5195595,16.6539242 20.3460758,17.4804405 20.3460758,18.5 C20.3460758,19.5195595 19.5195595,20.3460758 18.5,20.3460758 C17.4804592,20.345921 16.6539534,19.5195407 16.6536439,18.5 L16.6536439,18.5 Z" id="Union_1"></path>
            </g>
        </g>
    </g>
</svg>