<?xml version="1.0" encoding="UTF-8"?>
<svg width="100pt" height="100pt" version="1.1" viewBox="0 0 100 100" xmlns="http://www.w3.org/2000/svg">
 <g>
  <path d="m81.691 100h-63.379c-4.7539 0-8.6172-3.8633-8.6172-8.6172v-82.766c0-4.7539 3.8633-8.6172 8.6172-8.6172h49.289c0.78125 0 1.5273 0.3125 2.082 0.85938l19.758 19.742c0.55469 0.55469 0.85938 1.3008 0.85938 2.082v68.699c0 4.7461-3.8633 8.6172-8.6094 8.6172zm-63.379-94.117c-1.5078 0-2.7344 1.2227-2.7344 2.7344v82.766c0 1.5078 1.2305 2.7344 2.7344 2.7344h63.371c1.4805 0 2.7344-1.2539 2.7344-2.7344v-67.484l-18.035-18.016z"/>
  <path d="m87.359 25.625h-19.742c-1.625 0-2.9414-1.3164-2.9414-2.9414l0.003907-19.742c0-1.1875 0.71875-2.2656 1.8164-2.7188 1.0938-0.45312 2.3633-0.20703 3.207 0.63672l19.738 19.742c0.83984 0.83984 1.0938 2.1055 0.63672 3.207-0.46094 1.0977-1.5234 1.8164-2.7188 1.8164zm-16.801-5.8828h9.6992l-9.6992-9.6992z"/>
  <path d="m71.285 80.934h-42.566c-1.625 0-2.9414-1.3164-2.9414-2.9414s1.3164-2.9414 2.9414-2.9414h42.566c1.625 0 2.9414 1.3164 2.9414 2.9414s-1.3203 2.9414-2.9414 2.9414z"/>
  <path d="m71.285 63.289h-42.566c-1.625 0-2.9414-1.3164-2.9414-2.9414s1.3164-2.9414 2.9414-2.9414h42.566c1.625 0 2.9414 1.3164 2.9414 2.9414s-1.3203 2.9414-2.9414 2.9414z"/>
  <path d="m71.285 45.641h-42.566c-1.625 0-2.9414-1.3164-2.9414-2.9414s1.3164-2.9414 2.9414-2.9414h42.566c1.625 0 2.9414 1.3164 2.9414 2.9414s-1.3203 2.9414-2.9414 2.9414z"/>
 </g>
</svg>
