<?xml version="1.0" encoding="UTF-8"?>
<svg width="100pt" height="100pt" version="1.1" viewBox="0 0 100 100" xmlns="http://www.w3.org/2000/svg">
 <path d="m93.301 41h-11v-10.5c0-2.3008-1.8984-4.1992-4.1992-4.1992h-36.402c-1.3984 0-2.6992-0.69922-3.5-1.8008l-4.8984-7.3008c-0.80078-1.1016-2.1016-1.8008-3.3984-1.8008h-23.203c-2.3008 0-4.1992 1.8984-4.1992 4.1992v60.898c0 2.3008 1.8984 4.1992 4.1992 4.1992h72.801c1.6992 0 3.1992-1 3.8984-2.6016l13.801-35.301c1.1016-2.793-0.89844-5.793-3.8984-5.793zm-64.402-19.5 4.3008 6.3984c1.8984 2.8008 5.1016 4.5 8.6016 4.5h34.5v8.6016h-53.902c-1.6992 0-3.1992 1-3.8984 2.6016l-9.8984 25.398v-47.5zm49.301 57h-66.699l12.301-31.398h66.699z"/>
</svg>
